<svg xmlns="http://www.w3.org/2000/svg" width="960" height="280" viewBox="0 0 960 280" shape-rendering="crispEdges" role="img" aria-labelledby="title desc">
<title id="title">Code Gate Bridge pixel art banner</title>
<desc id="desc">A motion pixel-art Golden Gate style bridge carrying code packets between coding agents and model providers.</desc>
<style>
  .packet { animation: cross 8s linear infinite; transform-box: fill-box; transform-origin: center; }
  .wave { animation: shimmer 3.5s steps(2,end) infinite; }
  .wave2 { animation: shimmer 4.5s steps(2,end) infinite reverse; }
  .twinkle { animation: blink 5s steps(2,end) infinite; }
  .gatepulse { animation: pulse 2.6s steps(2,end) infinite; }
  @keyframes cross {
    0% { transform: translate(-28px,0); opacity:.35; }
    10% { opacity:1; }
    50% { transform: translate(28px,-8px); opacity:1; }
    90% { opacity:1; }
    100% { transform: translate(72px,0); opacity:.35; }
  }
  @keyframes shimmer { 0%,100% { opacity:.45; } 50% { opacity:.9; } }
  @keyframes blink { 0%,100% { opacity:.35; } 50% { opacity:1; } }
  @keyframes pulse { 0%,100% { opacity:.45; } 50% { opacity:1; } }
</style>
<rect x="0" y="0" width="960" height="280" fill="#07111f"/>
<rect x="0" y="36" width="960" height="4" fill="#10233b" opacity="0.75"/>
<rect x="0" y="40" width="960" height="4" fill="#0c1b30" opacity="0.85"/>
<rect x="0" y="44" width="960" height="4" fill="#09182a" opacity="1"/>
<rect x="52" y="36" width="4" height="4" fill="#f8d36a" class="twinkle"/>
<rect x="112" y="52" width="4" height="4" fill="#f1a94d" class="twinkle"/>
<rect x="804" y="40" width="4" height="4" fill="#f8d36a" class="twinkle"/>
<rect x="884" y="64" width="4" height="4" fill="#f1a94d" class="twinkle"/>
<rect x="736" y="52" width="4" height="4" fill="#dfe7ff" class="twinkle"/>
<rect x="196" y="44" width="4" height="4" fill="#dfe7ff" class="twinkle"/>
<rect x="296" y="72" width="56" height="4" fill="#3b1e2d" opacity="0.72"/>
<rect x="296" y="76" width="56" height="4" fill="#3b1e2d" opacity="0.55"/>
<rect x="352" y="76" width="56" height="4" fill="#5a2a35" opacity="0.72"/>
<rect x="352" y="80" width="56" height="4" fill="#5a2a35" opacity="0.55"/>
<rect x="408" y="80" width="56" height="4" fill="#823b3c" opacity="0.72"/>
<rect x="408" y="84" width="56" height="4" fill="#823b3c" opacity="0.55"/>
<rect x="464" y="84" width="56" height="4" fill="#b6533f" opacity="0.72"/>
<rect x="464" y="88" width="56" height="4" fill="#b6533f" opacity="0.55"/>
<rect x="520" y="88" width="56" height="4" fill="#e06a45" opacity="0.72"/>
<rect x="520" y="92" width="56" height="4" fill="#e06a45" opacity="0.55"/>
<rect x="576" y="92" width="56" height="4" fill="#f08a4b" opacity="0.72"/>
<rect x="576" y="96" width="56" height="4" fill="#f08a4b" opacity="0.55"/>
<rect x="0" y="208" width="960" height="72" fill="#071a2b"/>
<rect x="0" y="216" width="960" height="4" fill="#0b2b45"/>
<rect x="0" y="232" width="960" height="4" fill="#0a243b"/>
<rect x="0" y="248" width="960" height="4" fill="#081f35"/>
<rect x="0" y="264" width="960" height="4" fill="#071a2b"/>
<rect x="32" y="228" width="24" height="4" fill="#1d7c91" class="wave" opacity="0.68"/>
<rect x="60" y="232" width="12" height="4" fill="#f08a4b" class="wave2" opacity="0.45"/>
<rect x="80" y="236" width="24" height="4" fill="#1d7c91" class="wave" opacity="0.68"/>
<rect x="108" y="244" width="12" height="4" fill="#f08a4b" class="wave2" opacity="0.45"/>
<rect x="128" y="244" width="24" height="4" fill="#1d7c91" class="wave" opacity="0.68"/>
<rect x="156" y="232" width="12" height="4" fill="#f08a4b" class="wave2" opacity="0.45"/>
<rect x="176" y="228" width="24" height="4" fill="#1d7c91" class="wave" opacity="0.68"/>
<rect x="204" y="244" width="12" height="4" fill="#f08a4b" class="wave2" opacity="0.45"/>
<rect x="224" y="236" width="24" height="4" fill="#1d7c91" class="wave" opacity="0.68"/>
<rect x="252" y="232" width="12" height="4" fill="#f08a4b" class="wave2" opacity="0.45"/>
<rect x="272" y="244" width="24" height="4" fill="#1d7c91" class="wave" opacity="0.68"/>
<rect x="300" y="244" width="12" height="4" fill="#f08a4b" class="wave2" opacity="0.45"/>
<rect x="320" y="228" width="24" height="4" fill="#1d7c91" class="wave" opacity="0.68"/>
<rect x="348" y="232" width="12" height="4" fill="#f08a4b" class="wave2" opacity="0.45"/>
<rect x="368" y="236" width="24" height="4" fill="#1d7c91" class="wave" opacity="0.68"/>
<rect x="396" y="244" width="12" height="4" fill="#f08a4b" class="wave2" opacity="0.45"/>
<rect x="416" y="244" width="24" height="4" fill="#1d7c91" class="wave" opacity="0.68"/>
<rect x="444" y="232" width="12" height="4" fill="#f08a4b" class="wave2" opacity="0.45"/>
<rect x="464" y="228" width="24" height="4" fill="#1d7c91" class="wave" opacity="0.68"/>
<rect x="492" y="244" width="12" height="4" fill="#f08a4b" class="wave2" opacity="0.45"/>
<rect x="512" y="236" width="24" height="4" fill="#1d7c91" class="wave" opacity="0.68"/>
<rect x="540" y="232" width="12" height="4" fill="#f08a4b" class="wave2" opacity="0.45"/>
<rect x="560" y="244" width="24" height="4" fill="#1d7c91" class="wave" opacity="0.68"/>
<rect x="588" y="244" width="12" height="4" fill="#f08a4b" class="wave2" opacity="0.45"/>
<rect x="608" y="228" width="24" height="4" fill="#1d7c91" class="wave" opacity="0.68"/>
<rect x="636" y="232" width="12" height="4" fill="#f08a4b" class="wave2" opacity="0.45"/>
<rect x="656" y="236" width="24" height="4" fill="#1d7c91" class="wave" opacity="0.68"/>
<rect x="684" y="244" width="12" height="4" fill="#f08a4b" class="wave2" opacity="0.45"/>
<rect x="704" y="244" width="24" height="4" fill="#1d7c91" class="wave" opacity="0.68"/>
<rect x="732" y="232" width="12" height="4" fill="#f08a4b" class="wave2" opacity="0.45"/>
<rect x="752" y="228" width="24" height="4" fill="#1d7c91" class="wave" opacity="0.68"/>
<rect x="780" y="244" width="12" height="4" fill="#f08a4b" class="wave2" opacity="0.45"/>
<rect x="800" y="236" width="24" height="4" fill="#1d7c91" class="wave" opacity="0.68"/>
<rect x="828" y="232" width="12" height="4" fill="#f08a4b" class="wave2" opacity="0.45"/>
<rect x="848" y="244" width="24" height="4" fill="#1d7c91" class="wave" opacity="0.68"/>
<rect x="876" y="244" width="12" height="4" fill="#f08a4b" class="wave2" opacity="0.45"/>
<rect x="896" y="228" width="24" height="4" fill="#1d7c91" class="wave" opacity="0.68"/>
<rect x="924" y="232" width="12" height="4" fill="#f08a4b" class="wave2" opacity="0.45"/>
<rect x="92" y="188" width="776" height="8" fill="#2b2432"/>
<rect x="92" y="180" width="776" height="4" fill="#ff9c55"/>
<rect x="92" y="184" width="776" height="4" fill="#c94f3d"/>
<rect x="112" y="172" width="8" height="8" fill="#f37646"/>
<rect x="120" y="176" width="8" height="4" fill="#a83a32"/>
<rect x="136" y="172" width="8" height="8" fill="#f37646"/>
<rect x="144" y="176" width="8" height="4" fill="#a83a32"/>
<rect x="160" y="172" width="8" height="8" fill="#f37646"/>
<rect x="168" y="176" width="8" height="4" fill="#a83a32"/>
<rect x="184" y="172" width="8" height="8" fill="#f37646"/>
<rect x="192" y="176" width="8" height="4" fill="#a83a32"/>
<rect x="208" y="172" width="8" height="8" fill="#f37646"/>
<rect x="216" y="176" width="8" height="4" fill="#a83a32"/>
<rect x="232" y="172" width="8" height="8" fill="#f37646"/>
<rect x="240" y="176" width="8" height="4" fill="#a83a32"/>
<rect x="256" y="172" width="8" height="8" fill="#f37646"/>
<rect x="264" y="176" width="8" height="4" fill="#a83a32"/>
<rect x="280" y="172" width="8" height="8" fill="#f37646"/>
<rect x="288" y="176" width="8" height="4" fill="#a83a32"/>
<rect x="304" y="172" width="8" height="8" fill="#f37646"/>
<rect x="312" y="176" width="8" height="4" fill="#a83a32"/>
<rect x="328" y="172" width="8" height="8" fill="#f37646"/>
<rect x="336" y="176" width="8" height="4" fill="#a83a32"/>
<rect x="352" y="172" width="8" height="8" fill="#f37646"/>
<rect x="360" y="176" width="8" height="4" fill="#a83a32"/>
<rect x="376" y="172" width="8" height="8" fill="#f37646"/>
<rect x="384" y="176" width="8" height="4" fill="#a83a32"/>
<rect x="400" y="172" width="8" height="8" fill="#f37646"/>
<rect x="408" y="176" width="8" height="4" fill="#a83a32"/>
<rect x="424" y="172" width="8" height="8" fill="#f37646"/>
<rect x="432" y="176" width="8" height="4" fill="#a83a32"/>
<rect x="448" y="172" width="8" height="8" fill="#f37646"/>
<rect x="456" y="176" width="8" height="4" fill="#a83a32"/>
<rect x="472" y="172" width="8" height="8" fill="#f37646"/>
<rect x="480" y="176" width="8" height="4" fill="#a83a32"/>
<rect x="496" y="172" width="8" height="8" fill="#f37646"/>
<rect x="504" y="176" width="8" height="4" fill="#a83a32"/>
<rect x="520" y="172" width="8" height="8" fill="#f37646"/>
<rect x="528" y="176" width="8" height="4" fill="#a83a32"/>
<rect x="544" y="172" width="8" height="8" fill="#f37646"/>
<rect x="552" y="176" width="8" height="4" fill="#a83a32"/>
<rect x="568" y="172" width="8" height="8" fill="#f37646"/>
<rect x="576" y="176" width="8" height="4" fill="#a83a32"/>
<rect x="592" y="172" width="8" height="8" fill="#f37646"/>
<rect x="600" y="176" width="8" height="4" fill="#a83a32"/>
<rect x="616" y="172" width="8" height="8" fill="#f37646"/>
<rect x="624" y="176" width="8" height="4" fill="#a83a32"/>
<rect x="640" y="172" width="8" height="8" fill="#f37646"/>
<rect x="648" y="176" width="8" height="4" fill="#a83a32"/>
<rect x="664" y="172" width="8" height="8" fill="#f37646"/>
<rect x="672" y="176" width="8" height="4" fill="#a83a32"/>
<rect x="688" y="172" width="8" height="8" fill="#f37646"/>
<rect x="696" y="176" width="8" height="4" fill="#a83a32"/>
<rect x="712" y="172" width="8" height="8" fill="#f37646"/>
<rect x="720" y="176" width="8" height="4" fill="#a83a32"/>
<rect x="736" y="172" width="8" height="8" fill="#f37646"/>
<rect x="744" y="176" width="8" height="4" fill="#a83a32"/>
<rect x="760" y="172" width="8" height="8" fill="#f37646"/>
<rect x="768" y="176" width="8" height="4" fill="#a83a32"/>
<rect x="784" y="172" width="8" height="8" fill="#f37646"/>
<rect x="792" y="176" width="8" height="4" fill="#a83a32"/>
<rect x="808" y="172" width="8" height="8" fill="#f37646"/>
<rect x="816" y="176" width="8" height="4" fill="#a83a32"/>
<rect x="832" y="172" width="8" height="8" fill="#f37646"/>
<rect x="840" y="176" width="8" height="4" fill="#a83a32"/>
<rect x="136" y="192" width="28" height="4" fill="#f6d27a" opacity="0.75"/>
<rect x="192" y="192" width="28" height="4" fill="#f6d27a" opacity="0.75"/>
<rect x="248" y="192" width="28" height="4" fill="#f6d27a" opacity="0.75"/>
<rect x="304" y="192" width="28" height="4" fill="#f6d27a" opacity="0.75"/>
<rect x="360" y="192" width="28" height="4" fill="#f6d27a" opacity="0.75"/>
<rect x="416" y="192" width="28" height="4" fill="#f6d27a" opacity="0.75"/>
<rect x="472" y="192" width="28" height="4" fill="#f6d27a" opacity="0.75"/>
<rect x="528" y="192" width="28" height="4" fill="#f6d27a" opacity="0.75"/>
<rect x="584" y="192" width="28" height="4" fill="#f6d27a" opacity="0.75"/>
<rect x="640" y="192" width="28" height="4" fill="#f6d27a" opacity="0.75"/>
<rect x="696" y="192" width="28" height="4" fill="#f6d27a" opacity="0.75"/>
<rect x="752" y="192" width="28" height="4" fill="#f6d27a" opacity="0.75"/>
<rect x="808" y="192" width="28" height="4" fill="#f6d27a" opacity="0.75"/>
<rect x="260" y="88" width="16" height="8" fill="#d9573f"/>
<rect x="276" y="88" width="8" height="8" fill="#ff8b4a"/>
<rect x="300" y="88" width="8" height="8" fill="#ff8b4a"/>
<rect x="308" y="88" width="16" height="8" fill="#a83a32"/>
<rect x="260" y="96" width="16" height="8" fill="#d9573f"/>
<rect x="276" y="96" width="8" height="8" fill="#ff8b4a"/>
<rect x="300" y="96" width="8" height="8" fill="#ff8b4a"/>
<rect x="308" y="96" width="16" height="8" fill="#a83a32"/>
<rect x="260" y="104" width="16" height="8" fill="#d9573f"/>
<rect x="276" y="104" width="8" height="8" fill="#ff8b4a"/>
<rect x="300" y="104" width="8" height="8" fill="#ff8b4a"/>
<rect x="308" y="104" width="16" height="8" fill="#a83a32"/>
<rect x="260" y="112" width="16" height="8" fill="#d9573f"/>
<rect x="276" y="112" width="8" height="8" fill="#ff8b4a"/>
<rect x="300" y="112" width="8" height="8" fill="#ff8b4a"/>
<rect x="308" y="112" width="16" height="8" fill="#a83a32"/>
<rect x="260" y="120" width="16" height="8" fill="#d9573f"/>
<rect x="276" y="120" width="8" height="8" fill="#ff8b4a"/>
<rect x="300" y="120" width="8" height="8" fill="#ff8b4a"/>
<rect x="308" y="120" width="16" height="8" fill="#a83a32"/>
<rect x="260" y="128" width="16" height="8" fill="#d9573f"/>
<rect x="276" y="128" width="8" height="8" fill="#ff8b4a"/>
<rect x="300" y="128" width="8" height="8" fill="#ff8b4a"/>
<rect x="308" y="128" width="16" height="8" fill="#a83a32"/>
<rect x="260" y="136" width="16" height="8" fill="#d9573f"/>
<rect x="276" y="136" width="8" height="8" fill="#ff8b4a"/>
<rect x="300" y="136" width="8" height="8" fill="#ff8b4a"/>
<rect x="308" y="136" width="16" height="8" fill="#a83a32"/>
<rect x="260" y="144" width="16" height="8" fill="#d9573f"/>
<rect x="276" y="144" width="8" height="8" fill="#ff8b4a"/>
<rect x="300" y="144" width="8" height="8" fill="#ff8b4a"/>
<rect x="308" y="144" width="16" height="8" fill="#a83a32"/>
<rect x="260" y="152" width="16" height="8" fill="#d9573f"/>
<rect x="276" y="152" width="8" height="8" fill="#ff8b4a"/>
<rect x="300" y="152" width="8" height="8" fill="#ff8b4a"/>
<rect x="308" y="152" width="16" height="8" fill="#a83a32"/>
<rect x="260" y="160" width="16" height="8" fill="#d9573f"/>
<rect x="276" y="160" width="8" height="8" fill="#ff8b4a"/>
<rect x="300" y="160" width="8" height="8" fill="#ff8b4a"/>
<rect x="308" y="160" width="16" height="8" fill="#a83a32"/>
<rect x="260" y="168" width="16" height="8" fill="#d9573f"/>
<rect x="276" y="168" width="8" height="8" fill="#ff8b4a"/>
<rect x="300" y="168" width="8" height="8" fill="#ff8b4a"/>
<rect x="308" y="168" width="16" height="8" fill="#a83a32"/>
<rect x="260" y="176" width="16" height="8" fill="#d9573f"/>
<rect x="276" y="176" width="8" height="8" fill="#ff8b4a"/>
<rect x="300" y="176" width="8" height="8" fill="#ff8b4a"/>
<rect x="308" y="176" width="16" height="8" fill="#a83a32"/>
<rect x="260" y="184" width="16" height="8" fill="#d9573f"/>
<rect x="276" y="184" width="8" height="8" fill="#ff8b4a"/>
<rect x="300" y="184" width="8" height="8" fill="#ff8b4a"/>
<rect x="308" y="184" width="16" height="8" fill="#a83a32"/>
<rect x="284" y="112" width="16" height="16" fill="#09182a"/>
<rect x="288" y="116" width="8" height="8" fill="#11243a"/>
<rect x="284" y="136" width="16" height="16" fill="#09182a"/>
<rect x="288" y="140" width="8" height="8" fill="#11243a"/>
<rect x="284" y="160" width="16" height="16" fill="#09182a"/>
<rect x="288" y="164" width="8" height="8" fill="#11243a"/>
<rect x="252" y="100" width="80" height="8" fill="#f06a43"/>
<rect x="256" y="108" width="72" height="4" fill="#a83a32"/>
<rect x="252" y="124" width="80" height="8" fill="#f06a43"/>
<rect x="256" y="132" width="72" height="4" fill="#a83a32"/>
<rect x="252" y="148" width="80" height="8" fill="#f06a43"/>
<rect x="256" y="156" width="72" height="4" fill="#a83a32"/>
<rect x="252" y="172" width="80" height="8" fill="#f06a43"/>
<rect x="256" y="180" width="72" height="4" fill="#a83a32"/>
<rect x="256" y="76" width="72" height="12" fill="#ff9c55"/>
<rect x="264" y="68" width="56" height="8" fill="#d9573f"/>
<rect x="272" y="60" width="40" height="8" fill="#ff9c55"/>
<rect x="284" y="52" width="16" height="8" fill="#d9573f"/>
<rect x="284" y="188" width="16" height="12" fill="#ffd06a" class="gatepulse" opacity="0.78"/>
<rect x="676" y="88" width="16" height="8" fill="#d9573f"/>
<rect x="692" y="88" width="8" height="8" fill="#ff8b4a"/>
<rect x="716" y="88" width="8" height="8" fill="#ff8b4a"/>
<rect x="724" y="88" width="16" height="8" fill="#a83a32"/>
<rect x="676" y="96" width="16" height="8" fill="#d9573f"/>
<rect x="692" y="96" width="8" height="8" fill="#ff8b4a"/>
<rect x="716" y="96" width="8" height="8" fill="#ff8b4a"/>
<rect x="724" y="96" width="16" height="8" fill="#a83a32"/>
<rect x="676" y="104" width="16" height="8" fill="#d9573f"/>
<rect x="692" y="104" width="8" height="8" fill="#ff8b4a"/>
<rect x="716" y="104" width="8" height="8" fill="#ff8b4a"/>
<rect x="724" y="104" width="16" height="8" fill="#a83a32"/>
<rect x="676" y="112" width="16" height="8" fill="#d9573f"/>
<rect x="692" y="112" width="8" height="8" fill="#ff8b4a"/>
<rect x="716" y="112" width="8" height="8" fill="#ff8b4a"/>
<rect x="724" y="112" width="16" height="8" fill="#a83a32"/>
<rect x="676" y="120" width="16" height="8" fill="#d9573f"/>
<rect x="692" y="120" width="8" height="8" fill="#ff8b4a"/>
<rect x="716" y="120" width="8" height="8" fill="#ff8b4a"/>
<rect x="724" y="120" width="16" height="8" fill="#a83a32"/>
<rect x="676" y="128" width="16" height="8" fill="#d9573f"/>
<rect x="692" y="128" width="8" height="8" fill="#ff8b4a"/>
<rect x="716" y="128" width="8" height="8" fill="#ff8b4a"/>
<rect x="724" y="128" width="16" height="8" fill="#a83a32"/>
<rect x="676" y="136" width="16" height="8" fill="#d9573f"/>
<rect x="692" y="136" width="8" height="8" fill="#ff8b4a"/>
<rect x="716" y="136" width="8" height="8" fill="#ff8b4a"/>
<rect x="724" y="136" width="16" height="8" fill="#a83a32"/>
<rect x="676" y="144" width="16" height="8" fill="#d9573f"/>
<rect x="692" y="144" width="8" height="8" fill="#ff8b4a"/>
<rect x="716" y="144" width="8" height="8" fill="#ff8b4a"/>
<rect x="724" y="144" width="16" height="8" fill="#a83a32"/>
<rect x="676" y="152" width="16" height="8" fill="#d9573f"/>
<rect x="692" y="152" width="8" height="8" fill="#ff8b4a"/>
<rect x="716" y="152" width="8" height="8" fill="#ff8b4a"/>
<rect x="724" y="152" width="16" height="8" fill="#a83a32"/>
<rect x="676" y="160" width="16" height="8" fill="#d9573f"/>
<rect x="692" y="160" width="8" height="8" fill="#ff8b4a"/>
<rect x="716" y="160" width="8" height="8" fill="#ff8b4a"/>
<rect x="724" y="160" width="16" height="8" fill="#a83a32"/>
<rect x="676" y="168" width="16" height="8" fill="#d9573f"/>
<rect x="692" y="168" width="8" height="8" fill="#ff8b4a"/>
<rect x="716" y="168" width="8" height="8" fill="#ff8b4a"/>
<rect x="724" y="168" width="16" height="8" fill="#a83a32"/>
<rect x="676" y="176" width="16" height="8" fill="#d9573f"/>
<rect x="692" y="176" width="8" height="8" fill="#ff8b4a"/>
<rect x="716" y="176" width="8" height="8" fill="#ff8b4a"/>
<rect x="724" y="176" width="16" height="8" fill="#a83a32"/>
<rect x="676" y="184" width="16" height="8" fill="#d9573f"/>
<rect x="692" y="184" width="8" height="8" fill="#ff8b4a"/>
<rect x="716" y="184" width="8" height="8" fill="#ff8b4a"/>
<rect x="724" y="184" width="16" height="8" fill="#a83a32"/>
<rect x="700" y="112" width="16" height="16" fill="#09182a"/>
<rect x="704" y="116" width="8" height="8" fill="#11243a"/>
<rect x="700" y="136" width="16" height="16" fill="#09182a"/>
<rect x="704" y="140" width="8" height="8" fill="#11243a"/>
<rect x="700" y="160" width="16" height="16" fill="#09182a"/>
<rect x="704" y="164" width="8" height="8" fill="#11243a"/>
<rect x="668" y="100" width="80" height="8" fill="#f06a43"/>
<rect x="672" y="108" width="72" height="4" fill="#a83a32"/>
<rect x="668" y="124" width="80" height="8" fill="#f06a43"/>
<rect x="672" y="132" width="72" height="4" fill="#a83a32"/>
<rect x="668" y="148" width="80" height="8" fill="#f06a43"/>
<rect x="672" y="156" width="72" height="4" fill="#a83a32"/>
<rect x="668" y="172" width="80" height="8" fill="#f06a43"/>
<rect x="672" y="180" width="72" height="4" fill="#a83a32"/>
<rect x="672" y="76" width="72" height="12" fill="#ff9c55"/>
<rect x="680" y="68" width="56" height="8" fill="#d9573f"/>
<rect x="688" y="60" width="40" height="8" fill="#ff9c55"/>
<rect x="700" y="52" width="16" height="8" fill="#d9573f"/>
<rect x="700" y="188" width="16" height="12" fill="#ffd06a" class="gatepulse" opacity="0.78"/>
<rect x="100" y="152" width="4" height="4" fill="#ffb15f"/>
<rect x="100" y="156" width="4" height="4" fill="#b94738" opacity="0.75"/>
<rect x="104" y="152" width="4" height="4" fill="#ffb15f"/>
<rect x="108" y="148" width="4" height="4" fill="#ffb15f"/>
<rect x="108" y="152" width="4" height="4" fill="#b94738" opacity="0.75"/>
<rect x="112" y="148" width="4" height="4" fill="#ffb15f"/>
<rect x="116" y="144" width="4" height="4" fill="#ffb15f"/>
<rect x="116" y="148" width="4" height="4" fill="#b94738" opacity="0.75"/>
<rect x="120" y="144" width="4" height="4" fill="#ffb15f"/>
<rect x="124" y="140" width="4" height="4" fill="#ffb15f"/>
<rect x="124" y="144" width="4" height="4" fill="#b94738" opacity="0.75"/>
<rect x="128" y="140" width="4" height="4" fill="#ffb15f"/>
<rect x="132" y="140" width="4" height="4" fill="#ffb15f"/>
<rect x="132" y="144" width="4" height="4" fill="#b94738" opacity="0.75"/>
<rect x="136" y="136" width="4" height="4" fill="#ffb15f"/>
<rect x="140" y="136" width="4" height="4" fill="#ffb15f"/>
<rect x="140" y="140" width="4" height="4" fill="#b94738" opacity="0.75"/>
<rect x="144" y="132" width="4" height="4" fill="#ffb15f"/>
<rect x="148" y="132" width="4" height="4" fill="#ffb15f"/>
<rect x="148" y="136" width="4" height="4" fill="#b94738" opacity="0.75"/>
<rect x="152" y="132" width="4" height="4" fill="#ffb15f"/>
<rect x="156" y="128" width="4" height="4" fill="#ffb15f"/>
<rect x="156" y="132" width="4" height="4" fill="#b94738" opacity="0.75"/>
<rect x="160" y="128" width="4" height="4" fill="#ffb15f"/>
<rect x="164" y="124" width="4" height="4" fill="#ffb15f"/>
<rect x="164" y="128" width="4" height="4" fill="#b94738" opacity="0.75"/>
<rect x="168" y="124" width="4" height="4" fill="#ffb15f"/>
<rect x="172" y="120" width="4" height="4" fill="#ffb15f"/>
<rect x="172" y="124" width="4" height="4" fill="#b94738" opacity="0.75"/>
<rect x="176" y="120" width="4" height="4" fill="#ffb15f"/>
<rect x="180" y="120" width="4" height="4" fill="#ffb15f"/>
<rect x="180" y="124" width="4" height="4" fill="#b94738" opacity="0.75"/>
<rect x="184" y="116" width="4" height="4" fill="#ffb15f"/>
<rect x="188" y="116" width="4" height="4" fill="#ffb15f"/>
<rect x="188" y="120" width="4" height="4" fill="#b94738" opacity="0.75"/>
<rect x="192" y="112" width="4" height="4" fill="#ffb15f"/>
<rect x="196" y="112" width="4" height="4" fill="#ffb15f"/>
<rect x="196" y="116" width="4" height="4" fill="#b94738" opacity="0.75"/>
<rect x="200" y="108" width="4" height="4" fill="#ffb15f"/>
<rect x="204" y="108" width="4" height="4" fill="#ffb15f"/>
<rect x="204" y="112" width="4" height="4" fill="#b94738" opacity="0.75"/>
<rect x="208" y="108" width="4" height="4" fill="#ffb15f"/>
<rect x="212" y="104" width="4" height="4" fill="#ffb15f"/>
<rect x="212" y="108" width="4" height="4" fill="#b94738" opacity="0.75"/>
<rect x="216" y="104" width="4" height="4" fill="#ffb15f"/>
<rect x="220" y="100" width="4" height="4" fill="#ffb15f"/>
<rect x="220" y="104" width="4" height="4" fill="#b94738" opacity="0.75"/>
<rect x="224" y="100" width="4" height="4" fill="#ffb15f"/>
<rect x="228" y="100" width="4" height="4" fill="#ffb15f"/>
<rect x="228" y="104" width="4" height="4" fill="#b94738" opacity="0.75"/>
<rect x="324" y="92" width="4" height="4" fill="#ffb15f"/>
<rect x="324" y="96" width="4" height="4" fill="#b94738" opacity="0.65"/>
<rect x="328" y="92" width="4" height="4" fill="#ffb15f"/>
<rect x="332" y="92" width="4" height="4" fill="#ffb15f"/>
<rect x="336" y="92" width="4" height="4" fill="#ffb15f"/>
<rect x="336" y="96" width="4" height="4" fill="#b94738" opacity="0.65"/>
<rect x="340" y="96" width="4" height="4" fill="#ffb15f"/>
<rect x="344" y="96" width="4" height="4" fill="#ffb15f"/>
<rect x="348" y="96" width="4" height="4" fill="#ffb15f"/>
<rect x="348" y="100" width="4" height="4" fill="#b94738" opacity="0.65"/>
<rect x="352" y="96" width="4" height="4" fill="#ffb15f"/>
<rect x="356" y="96" width="4" height="4" fill="#ffb15f"/>
<rect x="360" y="100" width="4" height="4" fill="#ffb15f"/>
<rect x="360" y="104" width="4" height="4" fill="#b94738" opacity="0.65"/>
<rect x="364" y="100" width="4" height="4" fill="#ffb15f"/>
<rect x="368" y="100" width="4" height="4" fill="#ffb15f"/>
<rect x="372" y="100" width="4" height="4" fill="#ffb15f"/>
<rect x="372" y="104" width="4" height="4" fill="#b94738" opacity="0.65"/>
<rect x="376" y="104" width="4" height="4" fill="#ffb15f"/>
<rect x="380" y="104" width="4" height="4" fill="#ffb15f"/>
<rect x="384" y="104" width="4" height="4" fill="#ffb15f"/>
<rect x="384" y="108" width="4" height="4" fill="#b94738" opacity="0.65"/>
<rect x="388" y="104" width="4" height="4" fill="#ffb15f"/>
<rect x="392" y="104" width="4" height="4" fill="#ffb15f"/>
<rect x="396" y="108" width="4" height="4" fill="#ffb15f"/>
<rect x="396" y="112" width="4" height="4" fill="#b94738" opacity="0.65"/>
<rect x="400" y="108" width="4" height="4" fill="#ffb15f"/>
<rect x="404" y="108" width="4" height="4" fill="#ffb15f"/>
<rect x="408" y="108" width="4" height="4" fill="#ffb15f"/>
<rect x="408" y="112" width="4" height="4" fill="#b94738" opacity="0.65"/>
<rect x="412" y="108" width="4" height="4" fill="#ffb15f"/>
<rect x="416" y="108" width="4" height="4" fill="#ffb15f"/>
<rect x="420" y="108" width="4" height="4" fill="#ffb15f"/>
<rect x="420" y="112" width="4" height="4" fill="#b94738" opacity="0.65"/>
<rect x="424" y="112" width="4" height="4" fill="#ffb15f"/>
<rect x="428" y="112" width="4" height="4" fill="#ffb15f"/>
<rect x="432" y="112" width="4" height="4" fill="#ffb15f"/>
<rect x="432" y="116" width="4" height="4" fill="#b94738" opacity="0.65"/>
<rect x="436" y="112" width="4" height="4" fill="#ffb15f"/>
<rect x="440" y="112" width="4" height="4" fill="#ffb15f"/>
<rect x="444" y="112" width="4" height="4" fill="#ffb15f"/>
<rect x="444" y="116" width="4" height="4" fill="#b94738" opacity="0.65"/>
<rect x="448" y="112" width="4" height="4" fill="#ffb15f"/>
<rect x="452" y="112" width="4" height="4" fill="#ffb15f"/>
<rect x="456" y="116" width="4" height="4" fill="#ffb15f"/>
<rect x="456" y="120" width="4" height="4" fill="#b94738" opacity="0.65"/>
<rect x="460" y="116" width="4" height="4" fill="#ffb15f"/>
<rect x="464" y="116" width="4" height="4" fill="#ffb15f"/>
<rect x="468" y="116" width="4" height="4" fill="#ffb15f"/>
<rect x="468" y="120" width="4" height="4" fill="#b94738" opacity="0.65"/>
<rect x="472" y="116" width="4" height="4" fill="#ffb15f"/>
<rect x="476" y="116" width="4" height="4" fill="#ffb15f"/>
<rect x="480" y="116" width="4" height="4" fill="#ffb15f"/>
<rect x="480" y="120" width="4" height="4" fill="#b94738" opacity="0.65"/>
<rect x="484" y="116" width="4" height="4" fill="#ffb15f"/>
<rect x="488" y="116" width="4" height="4" fill="#ffb15f"/>
<rect x="492" y="116" width="4" height="4" fill="#ffb15f"/>
<rect x="492" y="120" width="4" height="4" fill="#b94738" opacity="0.65"/>
<rect x="496" y="116" width="4" height="4" fill="#ffb15f"/>
<rect x="500" y="116" width="4" height="4" fill="#ffb15f"/>
<rect x="504" y="116" width="4" height="4" fill="#ffb15f"/>
<rect x="504" y="120" width="4" height="4" fill="#b94738" opacity="0.65"/>
<rect x="508" y="116" width="4" height="4" fill="#ffb15f"/>
<rect x="512" y="116" width="4" height="4" fill="#ffb15f"/>
<rect x="516" y="116" width="4" height="4" fill="#ffb15f"/>
<rect x="516" y="120" width="4" height="4" fill="#b94738" opacity="0.65"/>
<rect x="520" y="116" width="4" height="4" fill="#ffb15f"/>
<rect x="524" y="116" width="4" height="4" fill="#ffb15f"/>
<rect x="528" y="116" width="4" height="4" fill="#ffb15f"/>
<rect x="528" y="120" width="4" height="4" fill="#b94738" opacity="0.65"/>
<rect x="532" y="120" width="4" height="4" fill="#ffb15f"/>
<rect x="536" y="116" width="4" height="4" fill="#ffb15f"/>
<rect x="540" y="116" width="4" height="4" fill="#ffb15f"/>
<rect x="540" y="120" width="4" height="4" fill="#b94738" opacity="0.65"/>
<rect x="544" y="116" width="4" height="4" fill="#ffb15f"/>
<rect x="548" y="116" width="4" height="4" fill="#ffb15f"/>
<rect x="552" y="116" width="4" height="4" fill="#ffb15f"/>
<rect x="552" y="120" width="4" height="4" fill="#b94738" opacity="0.65"/>
<rect x="556" y="116" width="4" height="4" fill="#ffb15f"/>
<rect x="560" y="116" width="4" height="4" fill="#ffb15f"/>
<rect x="564" y="116" width="4" height="4" fill="#ffb15f"/>
<rect x="564" y="120" width="4" height="4" fill="#b94738" opacity="0.65"/>
<rect x="568" y="116" width="4" height="4" fill="#ffb15f"/>
<rect x="572" y="116" width="4" height="4" fill="#ffb15f"/>
<rect x="576" y="116" width="4" height="4" fill="#ffb15f"/>
<rect x="576" y="120" width="4" height="4" fill="#b94738" opacity="0.65"/>
<rect x="580" y="116" width="4" height="4" fill="#ffb15f"/>
<rect x="584" y="116" width="4" height="4" fill="#ffb15f"/>
<rect x="588" y="116" width="4" height="4" fill="#ffb15f"/>
<rect x="588" y="120" width="4" height="4" fill="#b94738" opacity="0.65"/>
<rect x="592" y="116" width="4" height="4" fill="#ffb15f"/>
<rect x="596" y="116" width="4" height="4" fill="#ffb15f"/>
<rect x="600" y="116" width="4" height="4" fill="#ffb15f"/>
<rect x="600" y="120" width="4" height="4" fill="#b94738" opacity="0.65"/>
<rect x="604" y="116" width="4" height="4" fill="#ffb15f"/>
<rect x="608" y="116" width="4" height="4" fill="#ffb15f"/>
<rect x="612" y="112" width="4" height="4" fill="#ffb15f"/>
<rect x="612" y="116" width="4" height="4" fill="#b94738" opacity="0.65"/>
<rect x="616" y="112" width="4" height="4" fill="#ffb15f"/>
<rect x="620" y="112" width="4" height="4" fill="#ffb15f"/>
<rect x="624" y="112" width="4" height="4" fill="#ffb15f"/>
<rect x="624" y="116" width="4" height="4" fill="#b94738" opacity="0.65"/>
<rect x="628" y="112" width="4" height="4" fill="#ffb15f"/>
<rect x="632" y="112" width="4" height="4" fill="#ffb15f"/>
<rect x="636" y="112" width="4" height="4" fill="#ffb15f"/>
<rect x="636" y="116" width="4" height="4" fill="#b94738" opacity="0.65"/>
<rect x="640" y="112" width="4" height="4" fill="#ffb15f"/>
<rect x="644" y="108" width="4" height="4" fill="#ffb15f"/>
<rect x="648" y="108" width="4" height="4" fill="#ffb15f"/>
<rect x="648" y="112" width="4" height="4" fill="#b94738" opacity="0.65"/>
<rect x="652" y="108" width="4" height="4" fill="#ffb15f"/>
<rect x="656" y="108" width="4" height="4" fill="#ffb15f"/>
<rect x="660" y="108" width="4" height="4" fill="#ffb15f"/>
<rect x="660" y="112" width="4" height="4" fill="#b94738" opacity="0.65"/>
<rect x="664" y="108" width="4" height="4" fill="#ffb15f"/>
<rect x="668" y="108" width="4" height="4" fill="#ffb15f"/>
<rect x="672" y="104" width="4" height="4" fill="#ffb15f"/>
<rect x="672" y="108" width="4" height="4" fill="#b94738" opacity="0.65"/>
<rect x="676" y="104" width="4" height="4" fill="#ffb15f"/>
<rect x="680" y="104" width="4" height="4" fill="#ffb15f"/>
<rect x="684" y="104" width="4" height="4" fill="#ffb15f"/>
<rect x="684" y="108" width="4" height="4" fill="#b94738" opacity="0.65"/>
<rect x="688" y="104" width="4" height="4" fill="#ffb15f"/>
<rect x="692" y="100" width="4" height="4" fill="#ffb15f"/>
<rect x="696" y="100" width="4" height="4" fill="#ffb15f"/>
<rect x="696" y="104" width="4" height="4" fill="#b94738" opacity="0.65"/>
<rect x="700" y="100" width="4" height="4" fill="#ffb15f"/>
<rect x="704" y="100" width="4" height="4" fill="#ffb15f"/>
<rect x="708" y="96" width="4" height="4" fill="#ffb15f"/>
<rect x="708" y="100" width="4" height="4" fill="#b94738" opacity="0.65"/>
<rect x="712" y="96" width="4" height="4" fill="#ffb15f"/>
<rect x="716" y="96" width="4" height="4" fill="#ffb15f"/>
<rect x="720" y="96" width="4" height="4" fill="#ffb15f"/>
<rect x="720" y="100" width="4" height="4" fill="#b94738" opacity="0.65"/>
<rect x="724" y="96" width="4" height="4" fill="#ffb15f"/>
<rect x="728" y="92" width="4" height="4" fill="#ffb15f"/>
<rect x="732" y="92" width="4" height="4" fill="#ffb15f"/>
<rect x="732" y="96" width="4" height="4" fill="#b94738" opacity="0.65"/>
<rect x="736" y="92" width="4" height="4" fill="#ffb15f"/>
<rect x="740" y="92" width="4" height="4" fill="#ffb15f"/>
<rect x="740" y="100" width="4" height="4" fill="#ffb15f"/>
<rect x="740" y="104" width="4" height="4" fill="#b94738" opacity="0.75"/>
<rect x="744" y="100" width="4" height="4" fill="#ffb15f"/>
<rect x="748" y="100" width="4" height="4" fill="#ffb15f"/>
<rect x="748" y="104" width="4" height="4" fill="#b94738" opacity="0.75"/>
<rect x="752" y="104" width="4" height="4" fill="#ffb15f"/>
<rect x="756" y="104" width="4" height="4" fill="#ffb15f"/>
<rect x="756" y="108" width="4" height="4" fill="#b94738" opacity="0.75"/>
<rect x="760" y="108" width="4" height="4" fill="#ffb15f"/>
<rect x="764" y="108" width="4" height="4" fill="#ffb15f"/>
<rect x="764" y="112" width="4" height="4" fill="#b94738" opacity="0.75"/>
<rect x="768" y="108" width="4" height="4" fill="#ffb15f"/>
<rect x="772" y="112" width="4" height="4" fill="#ffb15f"/>
<rect x="772" y="116" width="4" height="4" fill="#b94738" opacity="0.75"/>
<rect x="776" y="112" width="4" height="4" fill="#ffb15f"/>
<rect x="780" y="116" width="4" height="4" fill="#ffb15f"/>
<rect x="780" y="120" width="4" height="4" fill="#b94738" opacity="0.75"/>
<rect x="784" y="116" width="4" height="4" fill="#ffb15f"/>
<rect x="788" y="120" width="4" height="4" fill="#ffb15f"/>
<rect x="788" y="124" width="4" height="4" fill="#b94738" opacity="0.75"/>
<rect x="792" y="120" width="4" height="4" fill="#ffb15f"/>
<rect x="796" y="120" width="4" height="4" fill="#ffb15f"/>
<rect x="796" y="124" width="4" height="4" fill="#b94738" opacity="0.75"/>
<rect x="800" y="124" width="4" height="4" fill="#ffb15f"/>
<rect x="804" y="124" width="4" height="4" fill="#ffb15f"/>
<rect x="804" y="128" width="4" height="4" fill="#b94738" opacity="0.75"/>
<rect x="808" y="128" width="4" height="4" fill="#ffb15f"/>
<rect x="812" y="128" width="4" height="4" fill="#ffb15f"/>
<rect x="812" y="132" width="4" height="4" fill="#b94738" opacity="0.75"/>
<rect x="816" y="132" width="4" height="4" fill="#ffb15f"/>
<rect x="820" y="132" width="4" height="4" fill="#ffb15f"/>
<rect x="820" y="136" width="4" height="4" fill="#b94738" opacity="0.75"/>
<rect x="824" y="132" width="4" height="4" fill="#ffb15f"/>
<rect x="828" y="136" width="4" height="4" fill="#ffb15f"/>
<rect x="828" y="140" width="4" height="4" fill="#b94738" opacity="0.75"/>
<rect x="832" y="136" width="4" height="4" fill="#ffb15f"/>
<rect x="836" y="140" width="4" height="4" fill="#ffb15f"/>
<rect x="836" y="144" width="4" height="4" fill="#b94738" opacity="0.75"/>
<rect x="840" y="140" width="4" height="4" fill="#ffb15f"/>
<rect x="844" y="140" width="4" height="4" fill="#ffb15f"/>
<rect x="844" y="144" width="4" height="4" fill="#b94738" opacity="0.75"/>
<rect x="848" y="144" width="4" height="4" fill="#ffb15f"/>
<rect x="852" y="144" width="4" height="4" fill="#ffb15f"/>
<rect x="852" y="148" width="4" height="4" fill="#b94738" opacity="0.75"/>
<rect x="856" y="148" width="4" height="4" fill="#ffb15f"/>
<rect x="860" y="148" width="4" height="4" fill="#ffb15f"/>
<rect x="860" y="152" width="4" height="4" fill="#b94738" opacity="0.75"/>
<rect x="864" y="152" width="4" height="4" fill="#ffb15f"/>
<rect x="868" y="152" width="4" height="4" fill="#ffb15f"/>
<rect x="868" y="156" width="4" height="4" fill="#b94738" opacity="0.75"/>
<rect x="140" y="144" width="4" height="8" fill="#dd6b49" opacity="0.82"/>
<rect x="140" y="156" width="4" height="8" fill="#dd6b49" opacity="0.82"/>
<rect x="140" y="168" width="4" height="8" fill="#dd6b49" opacity="0.82"/>
<rect x="168" y="132" width="4" height="8" fill="#dd6b49" opacity="0.82"/>
<rect x="168" y="144" width="4" height="8" fill="#dd6b49" opacity="0.82"/>
<rect x="168" y="156" width="4" height="8" fill="#dd6b49" opacity="0.82"/>
<rect x="168" y="168" width="4" height="8" fill="#dd6b49" opacity="0.82"/>
<rect x="196" y="120" width="4" height="8" fill="#dd6b49" opacity="0.82"/>
<rect x="196" y="132" width="4" height="8" fill="#dd6b49" opacity="0.82"/>
<rect x="196" y="144" width="4" height="8" fill="#dd6b49" opacity="0.82"/>
<rect x="196" y="156" width="4" height="8" fill="#dd6b49" opacity="0.82"/>
<rect x="196" y="168" width="4" height="8" fill="#dd6b49" opacity="0.82"/>
<rect x="224" y="108" width="4" height="8" fill="#dd6b49" opacity="0.82"/>
<rect x="224" y="120" width="4" height="8" fill="#dd6b49" opacity="0.82"/>
<rect x="224" y="132" width="4" height="8" fill="#dd6b49" opacity="0.82"/>
<rect x="224" y="144" width="4" height="8" fill="#dd6b49" opacity="0.82"/>
<rect x="224" y="156" width="4" height="8" fill="#dd6b49" opacity="0.82"/>
<rect x="224" y="168" width="4" height="8" fill="#dd6b49" opacity="0.82"/>
<rect x="252" y="96" width="4" height="8" fill="#dd6b49" opacity="0.82"/>
<rect x="252" y="108" width="4" height="8" fill="#dd6b49" opacity="0.82"/>
<rect x="252" y="120" width="4" height="8" fill="#dd6b49" opacity="0.82"/>
<rect x="252" y="132" width="4" height="8" fill="#dd6b49" opacity="0.82"/>
<rect x="252" y="144" width="4" height="8" fill="#dd6b49" opacity="0.82"/>
<rect x="252" y="156" width="4" height="8" fill="#dd6b49" opacity="0.82"/>
<rect x="252" y="168" width="4" height="8" fill="#dd6b49" opacity="0.82"/>
<rect x="280" y="92" width="4" height="8" fill="#dd6b49" opacity="0.82"/>
<rect x="280" y="104" width="4" height="8" fill="#dd6b49" opacity="0.82"/>
<rect x="280" y="116" width="4" height="8" fill="#dd6b49" opacity="0.82"/>
<rect x="280" y="128" width="4" height="8" fill="#dd6b49" opacity="0.82"/>
<rect x="280" y="140" width="4" height="8" fill="#dd6b49" opacity="0.82"/>
<rect x="280" y="152" width="4" height="8" fill="#dd6b49" opacity="0.82"/>
<rect x="280" y="164" width="4" height="8" fill="#dd6b49" opacity="0.82"/>
<rect x="308" y="92" width="4" height="8" fill="#dd6b49" opacity="0.82"/>
<rect x="308" y="104" width="4" height="8" fill="#dd6b49" opacity="0.82"/>
<rect x="308" y="116" width="4" height="8" fill="#dd6b49" opacity="0.82"/>
<rect x="308" y="128" width="4" height="8" fill="#dd6b49" opacity="0.82"/>
<rect x="308" y="140" width="4" height="8" fill="#dd6b49" opacity="0.82"/>
<rect x="308" y="152" width="4" height="8" fill="#dd6b49" opacity="0.82"/>
<rect x="308" y="164" width="4" height="8" fill="#dd6b49" opacity="0.82"/>
<rect x="336" y="100" width="4" height="8" fill="#dd6b49" opacity="0.82"/>
<rect x="336" y="112" width="4" height="8" fill="#dd6b49" opacity="0.82"/>
<rect x="336" y="124" width="4" height="8" fill="#dd6b49" opacity="0.82"/>
<rect x="336" y="136" width="4" height="8" fill="#dd6b49" opacity="0.82"/>
<rect x="336" y="148" width="4" height="8" fill="#dd6b49" opacity="0.82"/>
<rect x="336" y="160" width="4" height="8" fill="#dd6b49" opacity="0.82"/>
<rect x="336" y="172" width="4" height="8" fill="#dd6b49" opacity="0.82"/>
<rect x="364" y="108" width="4" height="8" fill="#dd6b49" opacity="0.82"/>
<rect x="364" y="120" width="4" height="8" fill="#dd6b49" opacity="0.82"/>
<rect x="364" y="132" width="4" height="8" fill="#dd6b49" opacity="0.82"/>
<rect x="364" y="144" width="4" height="8" fill="#dd6b49" opacity="0.82"/>
<rect x="364" y="156" width="4" height="8" fill="#dd6b49" opacity="0.82"/>
<rect x="364" y="168" width="4" height="8" fill="#dd6b49" opacity="0.82"/>
<rect x="392" y="112" width="4" height="8" fill="#dd6b49" opacity="0.82"/>
<rect x="392" y="124" width="4" height="8" fill="#dd6b49" opacity="0.82"/>
<rect x="392" y="136" width="4" height="8" fill="#dd6b49" opacity="0.82"/>
<rect x="392" y="148" width="4" height="8" fill="#dd6b49" opacity="0.82"/>
<rect x="392" y="160" width="4" height="8" fill="#dd6b49" opacity="0.82"/>
<rect x="392" y="172" width="4" height="8" fill="#dd6b49" opacity="0.82"/>
<rect x="420" y="116" width="4" height="8" fill="#dd6b49" opacity="0.82"/>
<rect x="420" y="128" width="4" height="8" fill="#dd6b49" opacity="0.82"/>
<rect x="420" y="140" width="4" height="8" fill="#dd6b49" opacity="0.82"/>
<rect x="420" y="152" width="4" height="8" fill="#dd6b49" opacity="0.82"/>
<rect x="420" y="164" width="4" height="8" fill="#dd6b49" opacity="0.82"/>
<rect x="448" y="120" width="4" height="8" fill="#dd6b49" opacity="0.82"/>
<rect x="448" y="132" width="4" height="8" fill="#dd6b49" opacity="0.82"/>
<rect x="448" y="144" width="4" height="8" fill="#dd6b49" opacity="0.82"/>
<rect x="448" y="156" width="4" height="8" fill="#dd6b49" opacity="0.82"/>
<rect x="448" y="168" width="4" height="8" fill="#dd6b49" opacity="0.82"/>
<rect x="476" y="124" width="4" height="8" fill="#dd6b49" opacity="0.82"/>
<rect x="476" y="136" width="4" height="8" fill="#dd6b49" opacity="0.82"/>
<rect x="476" y="148" width="4" height="8" fill="#dd6b49" opacity="0.82"/>
<rect x="476" y="160" width="4" height="8" fill="#dd6b49" opacity="0.82"/>
<rect x="476" y="172" width="4" height="8" fill="#dd6b49" opacity="0.82"/>
<rect x="504" y="124" width="4" height="8" fill="#dd6b49" opacity="0.82"/>
<rect x="504" y="136" width="4" height="8" fill="#dd6b49" opacity="0.82"/>
<rect x="504" y="148" width="4" height="8" fill="#dd6b49" opacity="0.82"/>
<rect x="504" y="160" width="4" height="8" fill="#dd6b49" opacity="0.82"/>
<rect x="504" y="172" width="4" height="8" fill="#dd6b49" opacity="0.82"/>
<rect x="532" y="128" width="4" height="8" fill="#dd6b49" opacity="0.82"/>
<rect x="532" y="140" width="4" height="8" fill="#dd6b49" opacity="0.82"/>
<rect x="532" y="152" width="4" height="8" fill="#dd6b49" opacity="0.82"/>
<rect x="532" y="164" width="4" height="8" fill="#dd6b49" opacity="0.82"/>
<rect x="560" y="124" width="4" height="8" fill="#dd6b49" opacity="0.82"/>
<rect x="560" y="136" width="4" height="8" fill="#dd6b49" opacity="0.82"/>
<rect x="560" y="148" width="4" height="8" fill="#dd6b49" opacity="0.82"/>
<rect x="560" y="160" width="4" height="8" fill="#dd6b49" opacity="0.82"/>
<rect x="560" y="172" width="4" height="8" fill="#dd6b49" opacity="0.82"/>
<rect x="588" y="124" width="4" height="8" fill="#dd6b49" opacity="0.82"/>
<rect x="588" y="136" width="4" height="8" fill="#dd6b49" opacity="0.82"/>
<rect x="588" y="148" width="4" height="8" fill="#dd6b49" opacity="0.82"/>
<rect x="588" y="160" width="4" height="8" fill="#dd6b49" opacity="0.82"/>
<rect x="588" y="172" width="4" height="8" fill="#dd6b49" opacity="0.82"/>
<rect x="616" y="120" width="4" height="8" fill="#dd6b49" opacity="0.82"/>
<rect x="616" y="132" width="4" height="8" fill="#dd6b49" opacity="0.82"/>
<rect x="616" y="144" width="4" height="8" fill="#dd6b49" opacity="0.82"/>
<rect x="616" y="156" width="4" height="8" fill="#dd6b49" opacity="0.82"/>
<rect x="616" y="168" width="4" height="8" fill="#dd6b49" opacity="0.82"/>
<rect x="644" y="116" width="4" height="8" fill="#dd6b49" opacity="0.82"/>
<rect x="644" y="128" width="4" height="8" fill="#dd6b49" opacity="0.82"/>
<rect x="644" y="140" width="4" height="8" fill="#dd6b49" opacity="0.82"/>
<rect x="644" y="152" width="4" height="8" fill="#dd6b49" opacity="0.82"/>
<rect x="644" y="164" width="4" height="8" fill="#dd6b49" opacity="0.82"/>
<rect x="672" y="112" width="4" height="8" fill="#dd6b49" opacity="0.82"/>
<rect x="672" y="124" width="4" height="8" fill="#dd6b49" opacity="0.82"/>
<rect x="672" y="136" width="4" height="8" fill="#dd6b49" opacity="0.82"/>
<rect x="672" y="148" width="4" height="8" fill="#dd6b49" opacity="0.82"/>
<rect x="672" y="160" width="4" height="8" fill="#dd6b49" opacity="0.82"/>
<rect x="672" y="172" width="4" height="8" fill="#dd6b49" opacity="0.82"/>
<rect x="700" y="108" width="4" height="8" fill="#dd6b49" opacity="0.82"/>
<rect x="700" y="120" width="4" height="8" fill="#dd6b49" opacity="0.82"/>
<rect x="700" y="132" width="4" height="8" fill="#dd6b49" opacity="0.82"/>
<rect x="700" y="144" width="4" height="8" fill="#dd6b49" opacity="0.82"/>
<rect x="700" y="156" width="4" height="8" fill="#dd6b49" opacity="0.82"/>
<rect x="700" y="168" width="4" height="8" fill="#dd6b49" opacity="0.82"/>
<rect x="728" y="100" width="4" height="8" fill="#dd6b49" opacity="0.82"/>
<rect x="728" y="112" width="4" height="8" fill="#dd6b49" opacity="0.82"/>
<rect x="728" y="124" width="4" height="8" fill="#dd6b49" opacity="0.82"/>
<rect x="728" y="136" width="4" height="8" fill="#dd6b49" opacity="0.82"/>
<rect x="728" y="148" width="4" height="8" fill="#dd6b49" opacity="0.82"/>
<rect x="728" y="160" width="4" height="8" fill="#dd6b49" opacity="0.82"/>
<rect x="728" y="172" width="4" height="8" fill="#dd6b49" opacity="0.82"/>
<rect x="756" y="112" width="4" height="8" fill="#dd6b49" opacity="0.82"/>
<rect x="756" y="124" width="4" height="8" fill="#dd6b49" opacity="0.82"/>
<rect x="756" y="136" width="4" height="8" fill="#dd6b49" opacity="0.82"/>
<rect x="756" y="148" width="4" height="8" fill="#dd6b49" opacity="0.82"/>
<rect x="756" y="160" width="4" height="8" fill="#dd6b49" opacity="0.82"/>
<rect x="756" y="172" width="4" height="8" fill="#dd6b49" opacity="0.82"/>
<rect x="784" y="124" width="4" height="8" fill="#dd6b49" opacity="0.82"/>
<rect x="784" y="136" width="4" height="8" fill="#dd6b49" opacity="0.82"/>
<rect x="784" y="148" width="4" height="8" fill="#dd6b49" opacity="0.82"/>
<rect x="784" y="160" width="4" height="8" fill="#dd6b49" opacity="0.82"/>
<rect x="784" y="172" width="4" height="8" fill="#dd6b49" opacity="0.82"/>
<rect x="812" y="136" width="4" height="8" fill="#dd6b49" opacity="0.82"/>
<rect x="812" y="148" width="4" height="8" fill="#dd6b49" opacity="0.82"/>
<rect x="812" y="160" width="4" height="8" fill="#dd6b49" opacity="0.82"/>
<rect x="812" y="172" width="4" height="8" fill="#dd6b49" opacity="0.82"/>
<rect x="840" y="148" width="4" height="8" fill="#dd6b49" opacity="0.82"/>
<rect x="840" y="160" width="4" height="8" fill="#dd6b49" opacity="0.82"/>
<rect x="840" y="172" width="4" height="8" fill="#dd6b49" opacity="0.82"/>
<g class="packet p1" style="animation-delay:0s" transform="translate(140,160)">
  <rect x="0" y="0" width="20" height="12" fill="#77e0ff"/>
  <rect x="4" y="4" width="4" height="4" fill="#07111f" opacity="0.72"/>
  <rect x="12" y="4" width="4" height="4" fill="#07111f" opacity="0.72"/>
  <rect x="20" y="4" width="8" height="4" fill="#77e0ff" opacity="0.65"/>
</g>
<g class="packet p2" style="animation-delay:-2.4s" transform="translate(420,150)">
  <rect x="0" y="0" width="20" height="12" fill="#9cff83"/>
  <rect x="4" y="4" width="4" height="4" fill="#07111f" opacity="0.72"/>
  <rect x="12" y="4" width="4" height="4" fill="#07111f" opacity="0.72"/>
  <rect x="20" y="4" width="8" height="4" fill="#9cff83" opacity="0.65"/>
</g>
<g class="packet p3" style="animation-delay:-4.8s" transform="translate(704,164)">
  <rect x="0" y="0" width="20" height="12" fill="#ffd36a"/>
  <rect x="4" y="4" width="4" height="4" fill="#07111f" opacity="0.72"/>
  <rect x="12" y="4" width="4" height="4" fill="#07111f" opacity="0.72"/>
  <rect x="20" y="4" width="8" height="4" fill="#ffd36a" opacity="0.65"/>
</g>
<g transform="translate(48,104)">
<rect x="0" y="0" width="132" height="64" fill="#0b2238"/>
<rect x="0" y="0" width="132" height="8" fill="#1f7ea0"/>
<rect x="12" y="20" width="20" height="4" fill="#77e0ff"/>
<rect x="36" y="20" width="44" height="4" fill="#dfe7ff" opacity="0.8"/>
<rect x="12" y="32" width="12" height="4" fill="#9cff83"/>
<rect x="28" y="32" width="60" height="4" fill="#dfe7ff" opacity="0.72"/>
<rect x="12" y="44" width="36" height="4" fill="#ffd36a"/>
<text x="68" y="86" font-family="ui-monospace, SFMono-Regular, Menlo, Monaco, Consolas, monospace" font-size="18" font-weight="700" fill="#03101d" text-anchor="middle" opacity="0.9">AGENTS</text>
<text x="66" y="84" font-family="ui-monospace, SFMono-Regular, Menlo, Monaco, Consolas, monospace" font-size="18" font-weight="700" fill="#dfe7ff" text-anchor="middle">AGENTS</text>
</g>
<g transform="translate(780,104)">
<rect x="0" y="0" width="132" height="64" fill="#0b2238"/>
<rect x="0" y="0" width="132" height="8" fill="#dd6b49"/>
<rect x="16" y="20" width="72" height="4" fill="#ff9c55"/>
<rect x="108" y="20" width="8" height="4" fill="#ff9c55" opacity="0.7"/>
<rect x="16" y="32" width="48" height="4" fill="#77e0ff"/>
<rect x="108" y="32" width="8" height="4" fill="#77e0ff" opacity="0.7"/>
<rect x="16" y="44" width="88" height="4" fill="#9cff83"/>
<rect x="108" y="44" width="8" height="4" fill="#9cff83" opacity="0.7"/>
<text x="68" y="86" font-family="ui-monospace, SFMono-Regular, Menlo, Monaco, Consolas, monospace" font-size="18" font-weight="700" fill="#03101d" text-anchor="middle" opacity="0.9">MODELS</text>
<text x="66" y="84" font-family="ui-monospace, SFMono-Regular, Menlo, Monaco, Consolas, monospace" font-size="18" font-weight="700" fill="#dfe7ff" text-anchor="middle">MODELS</text>
</g>
<text x="480" y="36" font-family="ui-monospace, SFMono-Regular, Menlo, Monaco, Consolas, monospace" font-size="30" font-weight="800" fill="#fff0d2" text-anchor="middle">CODE-GATE-BRIDGE</text>
<text x="482" y="62" font-family="ui-monospace, SFMono-Regular, Menlo, Monaco, Consolas, monospace" font-size="16" font-weight="700" fill="#03101d" text-anchor="middle" opacity="0.95">a golden gate for coding agents and model providers</text>
<text x="480" y="60" font-family="ui-monospace, SFMono-Regular, Menlo, Monaco, Consolas, monospace" font-size="16" font-weight="700" fill="#c8d7ee" text-anchor="middle">a golden gate for coding agents and model providers</text>
<rect x="408" y="226" width="144" height="24" fill="#0b2238"/>
<rect x="408" y="226" width="144" height="4" fill="#ff9c55"/>
<text x="480" y="243" font-family="ui-monospace, SFMono-Regular, Menlo, Monaco, Consolas, monospace" font-size="15" font-weight="700" fill="#dfe7ff" text-anchor="middle">cgb &lt;profile&gt;</text>
</svg>
